<?xml version="1.0" standalone="no"?>
<!DOCTYPE svg PUBLIC "-//W3C//DTD SVG 1.1//EN" "http://www.w3.org/Graphics/SVG/1.1/DTD/svg11.dtd">
<svg width="324" height="324" version="1.1" xmlns="http://www.w3.org/2000/svg">
  <title>20 by 20 orthogonal maze</title>
  <desc>20 by 20 orthogonal maze generated by The Maze Generator Website (http://www.mazegenerator.net/).</desc>
  <g fill="none" stroke="#000000" stroke-width="2" stroke-linecap="square">
    <line x1="2" y1="2" x2="146" y2="2" />
    <line x1="162" y1="2" x2="322" y2="2" />
    <line x1="2" y1="18" x2="34" y2="18" />
    <line x1="50" y1="18" x2="130" y2="18" />
    <line x1="178" y1="18" x2="210" y2="18" />
    <line x1="226" y1="18" x2="242" y2="18" />
    <line x1="274" y1="18" x2="290" y2="18" />
    <line x1="306" y1="18" x2="322" y2="18" />
    <line x1="18" y1="34" x2="50" y2="34" />
    <line x1="82" y1="34" x2="114" y2="34" />
    <line x1="178" y1="34" x2="194" y2="34" />
    <line x1="210" y1="34" x2="226" y2="34" />
    <line x1="242" y1="34" x2="274" y2="34" />
    <line x1="290" y1="34" x2="306" y2="34" />
    <line x1="114" y1="50" x2="146" y2="50" />
    <line x1="194" y1="50" x2="210" y2="50" />
    <line x1="226" y1="50" x2="242" y2="50" />
    <line x1="274" y1="50" x2="290" y2="50" />
    <line x1="306" y1="50" x2="322" y2="50" />
    <line x1="2" y1="66" x2="50" y2="66" />
    <line x1="82" y1="66" x2="98" y2="66" />
    <line x1="210" y1="66" x2="226" y2="66" />
    <line x1="258" y1="66" x2="274" y2="66" />
    <line x1="290" y1="66" x2="306" y2="66" />
    <line x1="18" y1="82" x2="34" y2="82" />
    <line x1="50" y1="82" x2="66" y2="82" />
    <line x1="98" y1="82" x2="162" y2="82" />
    <line x1="178" y1="82" x2="210" y2="82" />
    <line x1="274" y1="82" x2="290" y2="82" />
    <line x1="2" y1="98" x2="18" y2="98" />
    <line x1="34" y1="98" x2="50" y2="98" />
    <line x1="66" y1="98" x2="82" y2="98" />
    <line x1="162" y1="98" x2="178" y2="98" />
    <line x1="194" y1="98" x2="226" y2="98" />
    <line x1="290" y1="98" x2="306" y2="98" />
    <line x1="18" y1="114" x2="34" y2="114" />
    <line x1="50" y1="114" x2="66" y2="114" />
    <line x1="82" y1="114" x2="162" y2="114" />
    <line x1="178" y1="114" x2="194" y2="114" />
    <line x1="18" y1="130" x2="50" y2="130" />
    <line x1="66" y1="130" x2="98" y2="130" />
    <line x1="146" y1="130" x2="162" y2="130" />
    <line x1="194" y1="130" x2="226" y2="130" />
    <line x1="258" y1="130" x2="290" y2="130" />
    <line x1="18" y1="146" x2="34" y2="146" />
    <line x1="82" y1="146" x2="114" y2="146" />
    <line x1="130" y1="146" x2="146" y2="146" />
    <line x1="162" y1="146" x2="226" y2="146" />
    <line x1="242" y1="146" x2="274" y2="146" />
    <line x1="2" y1="162" x2="18" y2="162" />
    <line x1="34" y1="162" x2="50" y2="162" />
    <line x1="98" y1="162" x2="114" y2="162" />
    <line x1="146" y1="162" x2="210" y2="162" />
    <line x1="290" y1="162" x2="322" y2="162" />
    <line x1="18" y1="178" x2="34" y2="178" />
    <line x1="66" y1="178" x2="82" y2="178" />
    <line x1="98" y1="178" x2="146" y2="178" />
    <line x1="162" y1="178" x2="194" y2="178" />
    <line x1="210" y1="178" x2="258" y2="178" />
    <line x1="274" y1="178" x2="306" y2="178" />
    <line x1="34" y1="194" x2="50" y2="194" />
    <line x1="82" y1="194" x2="98" y2="194" />
    <line x1="130" y1="194" x2="162" y2="194" />
    <line x1="178" y1="194" x2="210" y2="194" />
    <line x1="242" y1="194" x2="274" y2="194" />
    <line x1="306" y1="194" x2="322" y2="194" />
    <line x1="2" y1="210" x2="34" y2="210" />
    <line x1="50" y1="210" x2="130" y2="210" />
    <line x1="162" y1="210" x2="242" y2="210" />
    <line x1="290" y1="210" x2="306" y2="210" />
    <line x1="34" y1="226" x2="50" y2="226" />
    <line x1="98" y1="226" x2="226" y2="226" />
    <line x1="274" y1="226" x2="306" y2="226" />
    <line x1="50" y1="242" x2="98" y2="242" />
    <line x1="178" y1="242" x2="194" y2="242" />
    <line x1="290" y1="242" x2="322" y2="242" />
    <line x1="34" y1="258" x2="50" y2="258" />
    <line x1="98" y1="258" x2="130" y2="258" />
    <line x1="162" y1="258" x2="178" y2="258" />
    <line x1="226" y1="258" x2="274" y2="258" />
    <line x1="18" y1="274" x2="66" y2="274" />
    <line x1="98" y1="274" x2="114" y2="274" />
    <line x1="130" y1="274" x2="162" y2="274" />
    <line x1="178" y1="274" x2="258" y2="274" />
    <line x1="306" y1="274" x2="322" y2="274" />
    <line x1="2" y1="290" x2="18" y2="290" />
    <line x1="50" y1="290" x2="66" y2="290" />
    <line x1="82" y1="290" x2="98" y2="290" />
    <line x1="114" y1="290" x2="130" y2="290" />
    <line x1="162" y1="290" x2="194" y2="290" />
    <line x1="226" y1="290" x2="274" y2="290" />
    <line x1="290" y1="290" x2="306" y2="290" />
    <line x1="18" y1="306" x2="34" y2="306" />
    <line x1="66" y1="306" x2="114" y2="306" />
    <line x1="146" y1="306" x2="162" y2="306" />
    <line x1="194" y1="306" x2="210" y2="306" />
    <line x1="226" y1="306" x2="258" y2="306" />
    <line x1="274" y1="306" x2="290" y2="306" />
    <line x1="2" y1="322" x2="162" y2="322" />
    <line x1="178" y1="322" x2="322" y2="322" />
    <line x1="2" y1="2" x2="2" y2="322" />
    <line x1="18" y1="34" x2="18" y2="50" />
    <line x1="18" y1="82" x2="18" y2="98" />
    <line x1="18" y1="114" x2="18" y2="130" />
    <line x1="18" y1="178" x2="18" y2="210" />
    <line x1="18" y1="226" x2="18" y2="274" />
    <line x1="34" y1="50" x2="34" y2="66" />
    <line x1="34" y1="98" x2="34" y2="114" />
    <line x1="34" y1="146" x2="34" y2="162" />
    <line x1="34" y1="210" x2="34" y2="226" />
    <line x1="34" y1="242" x2="34" y2="258" />
    <line x1="34" y1="274" x2="34" y2="306" />
    <line x1="50" y1="2" x2="50" y2="18" />
    <line x1="50" y1="34" x2="50" y2="66" />
    <line x1="50" y1="82" x2="50" y2="98" />
    <line x1="50" y1="130" x2="50" y2="162" />
    <line x1="50" y1="178" x2="50" y2="226" />
    <line x1="50" y1="242" x2="50" y2="258" />
    <line x1="50" y1="290" x2="50" y2="322" />
    <line x1="66" y1="18" x2="66" y2="82" />
    <line x1="66" y1="98" x2="66" y2="162" />
    <line x1="66" y1="178" x2="66" y2="194" />
    <line x1="66" y1="226" x2="66" y2="242" />
    <line x1="66" y1="258" x2="66" y2="290" />
    <line x1="82" y1="34" x2="82" y2="66" />
    <line x1="82" y1="82" x2="82" y2="114" />
    <line x1="82" y1="146" x2="82" y2="178" />
    <line x1="82" y1="194" x2="82" y2="226" />
    <line x1="82" y1="242" x2="82" y2="306" />
    <line x1="98" y1="34" x2="98" y2="50" />
    <line x1="98" y1="66" x2="98" y2="98" />
    <line x1="98" y1="178" x2="98" y2="194" />
    <line x1="98" y1="226" x2="98" y2="242" />
    <line x1="98" y1="258" x2="98" y2="274" />
    <line x1="114" y1="50" x2="114" y2="66" />
    <line x1="114" y1="98" x2="114" y2="162" />
    <line x1="114" y1="178" x2="114" y2="194" />
    <line x1="114" y1="242" x2="114" y2="258" />
    <line x1="114" y1="290" x2="114" y2="306" />
    <line x1="130" y1="18" x2="130" y2="50" />
    <line x1="130" y1="66" x2="130" y2="98" />
    <line x1="130" y1="130" x2="130" y2="146" />
    <line x1="130" y1="162" x2="130" y2="178" />
    <line x1="130" y1="194" x2="130" y2="210" />
    <line x1="130" y1="226" x2="130" y2="242" />
    <line x1="130" y1="258" x2="130" y2="290" />
    <line x1="130" y1="306" x2="130" y2="322" />
    <line x1="146" y1="2" x2="146" y2="34" />
    <line x1="146" y1="50" x2="146" y2="66" />
    <line x1="146" y1="98" x2="146" y2="114" />
    <line x1="146" y1="130" x2="146" y2="162" />
    <line x1="146" y1="210" x2="146" y2="226" />
    <line x1="146" y1="242" x2="146" y2="274" />
    <line x1="146" y1="290" x2="146" y2="306" />
    <line x1="162" y1="2" x2="162" y2="98" />
    <line x1="162" y1="114" x2="162" y2="130" />
    <line x1="162" y1="178" x2="162" y2="210" />
    <line x1="162" y1="226" x2="162" y2="258" />
    <line x1="162" y1="274" x2="162" y2="290" />
    <line x1="162" y1="306" x2="162" y2="322" />
    <line x1="178" y1="18" x2="178" y2="82" />
    <line x1="178" y1="98" x2="178" y2="146" />
    <line x1="178" y1="258" x2="178" y2="274" />
    <line x1="178" y1="290" x2="178" y2="322" />
    <line x1="194" y1="66" x2="194" y2="98" />
    <line x1="194" y1="162" x2="194" y2="178" />
    <line x1="194" y1="226" x2="194" y2="258" />
    <line x1="210" y1="18" x2="210" y2="34" />
    <line x1="210" y1="50" x2="210" y2="66" />
    <line x1="210" y1="98" x2="210" y2="130" />
    <line x1="210" y1="178" x2="210" y2="194" />
    <line x1="210" y1="242" x2="210" y2="306" />
    <line x1="226" y1="34" x2="226" y2="50" />
    <line x1="226" y1="66" x2="226" y2="98" />
    <line x1="226" y1="114" x2="226" y2="130" />
    <line x1="226" y1="146" x2="226" y2="178" />
    <line x1="226" y1="194" x2="226" y2="210" />
    <line x1="226" y1="226" x2="226" y2="242" />
    <line x1="242" y1="18" x2="242" y2="34" />
    <line x1="242" y1="50" x2="242" y2="162" />
    <line x1="242" y1="210" x2="242" y2="258" />
    <line x1="258" y1="2" x2="258" y2="18" />
    <line x1="258" y1="34" x2="258" y2="130" />
    <line x1="258" y1="162" x2="258" y2="178" />
    <line x1="258" y1="194" x2="258" y2="242" />
    <line x1="258" y1="274" x2="258" y2="290" />
    <line x1="258" y1="306" x2="258" y2="322" />
    <line x1="274" y1="18" x2="274" y2="34" />
    <line x1="274" y1="82" x2="274" y2="114" />
    <line x1="274" y1="146" x2="274" y2="194" />
    <line x1="274" y1="210" x2="274" y2="274" />
    <line x1="274" y1="290" x2="274" y2="306" />
    <line x1="290" y1="18" x2="290" y2="82" />
    <line x1="290" y1="98" x2="290" y2="162" />
    <line x1="290" y1="178" x2="290" y2="210" />
    <line x1="290" y1="242" x2="290" y2="290" />
    <line x1="306" y1="82" x2="306" y2="146" />
    <line x1="306" y1="210" x2="306" y2="226" />
    <line x1="306" y1="258" x2="306" y2="274" />
    <line x1="306" y1="290" x2="306" y2="306" />
    <line x1="322" y1="2" x2="322" y2="322" />
  </g>
  <polyline fill="none" stroke="#ff0000" stroke-width="2" stroke-linecap="square" stroke-linejoin="round" points="154,2 154,74 138,74 138,58 122,58 122,74 106,74 106,42 122,42 122,26 74,26 74,74 90,74 90,106 106,106 106,90 122,90 122,106 138,106 138,90 154,90 154,106 170,106 170,138 154,138 154,154 218,154 218,170 202,170 202,186 170,186 170,202 218,202 218,186 266,186 266,154 250,154 250,170 234,170 234,138 186,138 186,122 202,122 202,106 186,106 186,90 170,90 170,10 218,10 218,26 234,26 234,42 250,42 250,138 282,138 282,170 314,170 314,186 298,186 298,202 314,202 314,234 282,234 282,282 266,282 266,266 218,266 218,250 234,250 234,218 154,218 154,202 138,202 138,218 90,218 90,234 74,234 74,218 58,218 58,234 26,234 26,266 58,266 58,250 74,250 74,298 58,298 58,314 122,314 122,298 138,298 138,282 154,282 154,298 170,298 170,322" />
</svg>
