<?xml version="1.0" standalone="no"?>
<!DOCTYPE svg PUBLIC "-//W3C//DTD SVG 1.1//EN" "http://www.w3.org/Graphics/SVG/1.1/DTD/svg11.dtd">
<svg width="494" height="573.84471569016057" version="1.1" xmlns="http://www.w3.org/2000/svg">
  <title>Hexagonal sigma maze with 12 cells side</title>
  <desc>Hexagonal sigma maze with 12 cells side generated by The Maze Generator Website (http://www.mazegenerator.net/).</desc>
  <g fill="none" stroke="#000000" stroke-width="2" stroke-linecap="round" stroke-linejoin="round">
    <polyline points="212,26.248711305964264 219,14.124355652982123 233,14.124355652982123 240,1.9999999999999822" />
    <polyline points="254,1.9999999999999822 261,14.124355652982123 254,26.248711305964264" />
    <polyline points="261,14.124355652982123 275,14.124355652982123 282,26.248711305964264" />
    <polyline points="170,50.497422611928542 177,38.3730669589464 191,38.3730669589464 198,50.497422611928542" />
    <polyline points="191,38.3730669589464 198,26.248711305964264 212,26.248711305964264" />
    <polyline points="212,50.497422611928542 219,38.3730669589464 233,38.3730669589464 240,50.497422611928542" />
    <line x1="233" y1="38.3730669589464" x2="240" y2="26.248711305964264" />
    <line x1="254" y1="26.248711305964264" x2="261" y2="38.3730669589464" />
    <line x1="275" y1="38.3730669589464" x2="282" y2="50.497422611928542" />
    <polyline points="282,26.248711305964264 296,26.248711305964264 303,38.3730669589464 317,38.3730669589464 324,50.497422611928542" />
    <polyline points="128,74.74613391789282 135,62.621778264910681 149,62.621778264910681 156,74.74613391789282" />
    <polyline points="149,62.621778264910681 156,50.497422611928542 170,50.497422611928542 177,62.621778264910681" />
    <line x1="191" y1="62.621778264910681" x2="198" y2="74.74613391789282" />
    <polyline points="212,50.497422611928542 219,62.621778264910681 212,74.74613391789282" />
    <line x1="233" y1="62.621778264910681" x2="240" y2="74.74613391789282" />
    <polyline points="240,50.497422611928542 254,50.497422611928542 261,62.621778264910681 275,62.621778264910681 282,50.497422611928542 296,50.497422611928542 303,62.621778264910681 296,74.74613391789282" />
    <polyline points="317,62.621778264910681 324,50.497422611928542 338,50.497422611928542 345,62.621778264910681 359,62.621778264910681 366,74.74613391789282" />
    <polyline points="86,98.994845223857112 93,86.870489570874966 107,86.870489570874966 114,98.994845223857112" />
    <polyline points="107,86.870489570874966 114,74.74613391789282 128,74.74613391789282" />
    <polyline points="135,86.870489570874966 149,86.870489570874966 156,98.994845223857112" />
    <line x1="149" y1="86.870489570874966" x2="156" y2="74.74613391789282" />
    <polyline points="170,74.74613391789282 177,86.870489570874966 191,86.870489570874966 198,74.74613391789282 212,74.74613391789282 219,86.870489570874966 212,98.994845223857112" />
    <polyline points="240,98.994845223857112 233,86.870489570874966 240,74.74613391789282 254,74.74613391789282 261,86.870489570874966 275,86.870489570874966 282,98.994845223857112" />
    <line x1="275" y1="86.870489570874966" x2="282" y2="74.74613391789282" />
    <polyline points="296,74.74613391789282 303,86.870489570874966 317,86.870489570874966 324,98.994845223857112" />
    <polyline points="317,86.870489570874966 324,74.74613391789282 338,74.74613391789282" />
    <polyline points="338,98.994845223857112 345,86.870489570874966 359,86.870489570874966 366,98.994845223857112" />
    <polyline points="366,74.74613391789282 380,74.74613391789282 387,86.870489570874966 380,98.994845223857112" />
    <polyline points="387,86.870489570874966 401,86.870489570874966 408,98.994845223857112" />
    <polyline points="44,123.24355652982139 51,111.11920087683924 65,111.11920087683924 72,98.9948452238571 86,98.9948452238571 93,111.11920087683924 86,123.24355652982139" />
    <line x1="107" y1="111.11920087683924" x2="114" y2="123.24355652982139" />
    <polyline points="128,98.9948452238571 135,111.11920087683924 128,123.24355652982139" />
    <polyline points="149,111.11920087683924 156,98.9948452238571 170,98.9948452238571 177,111.11920087683924 170,123.24355652982139" />
    <polyline points="177,111.11920087683924 191,111.11920087683924 198,98.9948452238571" />
    <polyline points="212,98.9948452238571 219,111.11920087683924 212,123.24355652982139" />
    <polyline points="219,111.11920087683924 233,111.11920087683924 240,123.24355652982139" />
    <polyline points="254,98.9948452238571 261,111.11920087683924 254,123.24355652982139" />
    <line x1="261" y1="111.11920087683924" x2="275" y2="111.11920087683924" />
    <polyline points="282,98.9948452238571 296,98.9948452238571 303,111.11920087683924 296,123.24355652982139" />
    <polyline points="303,111.11920087683924 317,111.11920087683924 324,123.24355652982139" />
    <line x1="324" y1="98.9948452238571" x2="338" y2="98.9948452238571" />
    <polyline points="338,123.24355652982139 345,111.11920087683924 359,111.11920087683924 366,123.24355652982139" />
    <line x1="380" y1="123.24355652982139" x2="387" y2="111.11920087683924" />
    <polyline points="408,123.24355652982139 401,111.11920087683924 408,98.9948452238571 422,98.9948452238571 429,111.11920087683924 443,111.11920087683924 450,123.24355652982139" />
    <polyline points="9,159.6166234887678 2,147.49226783578567 9,135.36791218280354 23,135.36791218280354 30,123.24355652982139 44,123.24355652982139" />
    <polyline points="44,147.49226783578567 51,135.36791218280354 65,135.36791218280354 72,123.24355652982139 86,123.24355652982139" />
    <polyline points="86,147.49226783578567 93,135.36791218280354 107,135.36791218280354 114,147.49226783578567" />
    <polyline points="107,135.36791218280354 114,123.24355652982139 128,123.24355652982139" />
    <polyline points="135,135.36791218280354 149,135.36791218280354 156,123.24355652982139 170,123.24355652982139" />
    <polyline points="170,147.49226783578567 177,135.36791218280354 191,135.36791218280354 198,123.24355652982139 212,123.24355652982139 219,135.36791218280354 212,147.49226783578567" />
    <polyline points="240,147.49226783578567 233,135.36791218280354 240,123.24355652982139 254,123.24355652982139 261,135.36791218280354 275,135.36791218280354 282,147.49226783578567" />
    <polyline points="282,123.24355652982139 296,123.24355652982139 303,135.36791218280354 296,147.49226783578567" />
    <polyline points="324,147.49226783578567 317,135.36791218280354 324,123.24355652982139 338,123.24355652982139" />
    <line x1="338" y1="147.49226783578567" x2="345" y2="135.36791218280354" />
    <polyline points="359,135.36791218280354 366,123.24355652982139 380,123.24355652982139 387,135.36791218280354 380,147.49226783578567" />
    <polyline points="408,147.49226783578567 401,135.36791218280354 408,123.24355652982139 422,123.24355652982139" />
    <polyline points="422,147.49226783578567 429,135.36791218280354 443,135.36791218280354 450,147.49226783578567" />
    <polyline points="450,123.24355652982139 464,123.24355652982139 471,135.36791218280354 485,135.36791218280354 492,147.49226783578567 485,159.6166234887678" />
    <polyline points="9,183.86533479473209 2,171.74097914174996 9,159.61662348876783 23,159.61662348876783 30,171.74097914174996" />
    <polyline points="30,147.4922678357857 44,147.4922678357857 51,159.61662348876783 44,171.74097914174996" />
    <polyline points="72,171.74097914174996 65,159.61662348876783 72,147.4922678357857 86,147.4922678357857" />
    <line x1="86" y1="171.74097914174996" x2="93" y2="159.61662348876783" />
    <polyline points="107,159.61662348876783 114,147.4922678357857 128,147.4922678357857 135,159.61662348876783 128,171.74097914174996" />
    <polyline points="135,159.61662348876783 149,159.61662348876783 156,171.74097914174996" />
    <polyline points="149,159.61662348876783 156,147.4922678357857 170,147.4922678357857 177,159.61662348876783 191,159.61662348876783 198,147.4922678357857" />
    <polyline points="212,171.74097914174996 219,159.61662348876783 233,159.61662348876783 240,171.74097914174996" />
    <line x1="233" y1="159.61662348876783" x2="240" y2="147.4922678357857" />
    <polyline points="254,147.4922678357857 261,159.61662348876783 254,171.74097914174996" />
    <polyline points="282,171.74097914174996 275,159.61662348876783 282,147.4922678357857" />
    <polyline points="296,171.74097914174996 303,159.61662348876783 317,159.61662348876783 324,171.74097914174996" />
    <line x1="317" y1="159.61662348876783" x2="324" y2="147.4922678357857" />
    <polyline points="338,147.4922678357857 345,159.61662348876783 359,159.61662348876783 366,171.74097914174996" />
    <line x1="359" y1="159.61662348876783" x2="366" y2="147.4922678357857" />
    <line x1="380" y1="171.74097914174996" x2="387" y2="159.61662348876783" />
    <polyline points="408,171.74097914174996 401,159.61662348876783 408,147.4922678357857" />
    <line x1="422" y1="171.74097914174996" x2="429" y2="159.61662348876783" />
    <polyline points="450,171.74097914174996 443,159.61662348876783 450,147.4922678357857 464,147.4922678357857" />
    <polyline points="464,171.74097914174996 471,159.61662348876783 485,159.61662348876783 492,171.74097914174996 485,183.86533479473209" />
    <polyline points="9,208.11404610069636 2,195.98969044771422 9,183.86533479473209" />
    <line x1="23" y1="183.86533479473209" x2="30" y2="195.98969044771422" />
    <polyline points="44,195.98969044771422 51,183.86533479473209 65,183.86533479473209 72,195.98969044771422" />
    <line x1="65" y1="183.86533479473209" x2="72" y2="171.74097914174996" />
    <polyline points="86,171.74097914174996 93,183.86533479473209 86,195.98969044771422" />
    <polyline points="114,195.98969044771422 107,183.86533479473209 114,171.74097914174996 128,171.74097914174996" />
    <line x1="128" y1="195.98969044771422" x2="135" y2="183.86533479473209" />
    <polyline points="156,195.98969044771422 149,183.86533479473209 156,171.74097914174996" />
    <polyline points="170,171.74097914174996 177,183.86533479473209 191,183.86533479473209 198,195.98969044771422" />
    <line x1="191" y1="183.86533479473209" x2="198" y2="171.74097914174996" />
    <polyline points="212,195.98969044771422 219,183.86533479473209 233,183.86533479473209 240,195.98969044771422" />
    <polyline points="254,171.74097914174996 261,183.86533479473209 254,195.98969044771422" />
    <polyline points="261,183.86533479473209 275,183.86533479473209 282,195.98969044771422" />
    <polyline points="282,171.74097914174996 296,171.74097914174996 303,183.86533479473209 296,195.98969044771422" />
    <line x1="303" y1="183.86533479473209" x2="317" y2="183.86533479473209" />
    <polyline points="324,171.74097914174996 338,171.74097914174996 345,183.86533479473209 338,195.98969044771422" />
    <line x1="345" y1="183.86533479473209" x2="359" y2="183.86533479473209" />
    <polyline points="366,171.74097914174996 380,171.74097914174996 387,183.86533479473209 380,195.98969044771422" />
    <line x1="387" y1="183.86533479473209" x2="401" y2="183.86533479473209" />
    <polyline points="408,171.74097914174996 422,171.74097914174996 429,183.86533479473209 422,195.98969044771422" />
    <polyline points="450,195.98969044771422 443,183.86533479473209 450,171.74097914174996" />
    <polyline points="471,183.86533479473209 485,183.86533479473209 492,195.98969044771422 485,208.11404610069636" />
    <polyline points="9,232.36275740666065 2,220.23840175367852 9,208.11404610069639 23,208.11404610069639 30,220.23840175367852" />
    <line x1="30" y1="195.98969044771425" x2="44" y2="195.98969044771425" />
    <line x1="44" y1="220.23840175367852" x2="51" y2="208.11404610069639" />
    <polyline points="65,208.11404610069639 72,195.98969044771425 86,195.98969044771425" />
    <line x1="86" y1="220.23840175367852" x2="93" y2="208.11404610069639" />
    <polyline points="114,220.23840175367852 107,208.11404610069639 114,195.98969044771425" />
    <polyline points="128,195.98969044771425 135,208.11404610069639 128,220.23840175367852" />
    <line x1="135" y1="208.11404610069639" x2="149" y2="208.11404610069639" />
    <polyline points="156,195.98969044771425 170,195.98969044771425 177,208.11404610069639 170,220.23840175367852" />
    <polyline points="177,208.11404610069639 191,208.11404610069639 198,220.23840175367852" />
    <polyline points="198,195.98969044771425 212,195.98969044771425 219,208.11404610069639 212,220.23840175367852" />
    <line x1="233" y1="208.11404610069639" x2="240" y2="220.23840175367852" />
    <polyline points="240,195.98969044771425 254,195.98969044771425 261,208.11404610069639" />
    <polyline points="282,220.23840175367852 275,208.11404610069639 282,195.98969044771425" />
    <polyline points="296,220.23840175367852 303,208.11404610069639 317,208.11404610069639 324,195.98969044771425 338,195.98969044771425" />
    <polyline points="338,220.23840175367852 345,208.11404610069639 359,208.11404610069639 366,195.98969044771425 380,195.98969044771425 387,208.11404610069639 401,208.11404610069639" />
    <line x1="408" y1="195.98969044771425" x2="422" y2="195.98969044771425" />
    <polyline points="422,220.23840175367852 429,208.11404610069639 443,208.11404610069639 450,195.98969044771425 464,195.98969044771425 471,208.11404610069639 464,220.23840175367852" />
    <polyline points="485,208.11404610069639 492,220.23840175367852 485,232.36275740666065" />
    <polyline points="9,256.61146871262497 2,244.48711305964281 9,232.36275740666068" />
    <line x1="23" y1="232.36275740666068" x2="30" y2="244.48711305964281" />
    <polyline points="30,220.23840175367855 44,220.23840175367855 51,232.36275740666068 65,232.36275740666068 72,244.48711305964281" />
    <polyline points="65,232.36275740666068 72,220.23840175367855 86,220.23840175367855 93,232.36275740666068 107,232.36275740666068 114,244.48711305964281" />
    <polyline points="128,220.23840175367855 135,232.36275740666068 128,244.48711305964281" />
    <polyline points="149,232.36275740666068 156,220.23840175367855 170,220.23840175367855" />
    <line x1="170" y1="244.48711305964281" x2="177" y2="232.36275740666068" />
    <polyline points="198,244.48711305964281 191,232.36275740666068 198,220.23840175367855" />
    <line x1="212" y1="220.23840175367855" x2="219" y2="232.36275740666068" />
    <line x1="233" y1="232.36275740666068" x2="240" y2="244.48711305964281" />
    <polyline points="240,220.23840175367855 254,220.23840175367855 261,232.36275740666068 275,232.36275740666068 282,244.48711305964281" />
    <line x1="275" y1="232.36275740666068" x2="282" y2="220.23840175367855" />
    <polyline points="296,220.23840175367855 303,232.36275740666068 296,244.48711305964281" />
    <polyline points="317,232.36275740666068 324,220.23840175367855 338,220.23840175367855 345,232.36275740666068 359,232.36275740666068 366,244.48711305964281" />
    <line x1="359" y1="232.36275740666068" x2="366" y2="220.23840175367855" />
    <polyline points="380,220.23840175367855 387,232.36275740666068 380,244.48711305964281" />
    <polyline points="387,232.36275740666068 401,232.36275740666068 408,244.48711305964281" />
    <polyline points="401,232.36275740666068 408,220.23840175367855 422,220.23840175367855" />
    <polyline points="429,232.36275740666068 443,232.36275740666068 450,244.48711305964281" />
    <line x1="443" y1="232.36275740666068" x2="450" y2="220.23840175367855" />
    <polyline points="464,220.23840175367855 471,232.36275740666068 464,244.48711305964281" />
    <polyline points="485,232.36275740666068 492,244.48711305964281 485,256.61146871262497" />
    <polyline points="9,280.86018001858923 2,268.73582436560707 9,256.61146871262491" />
    <polyline points="30,268.73582436560707 23,256.61146871262491 30,244.48711305964278 44,244.48711305964278" />
    <polyline points="51,256.61146871262491 65,256.61146871262491 72,268.73582436560707" />
    <line x1="65" y1="256.61146871262491" x2="72" y2="244.48711305964278" />
    <polyline points="86,244.48711305964278 93,256.61146871262491 107,256.61146871262491 114,268.73582436560707" />
    <polyline points="107,256.61146871262491 114,244.48711305964278 128,244.48711305964278 135,256.61146871262491 149,256.61146871262491 156,244.48711305964278 170,244.48711305964278 177,256.61146871262491 170,268.73582436560707" />
    <polyline points="198,268.73582436560707 191,256.61146871262491 198,244.48711305964278 212,244.48711305964278" />
    <polyline points="212,268.73582436560707 219,256.61146871262491 233,256.61146871262491 240,244.48711305964278 254,244.48711305964278 261,256.61146871262491 275,256.61146871262491 282,268.73582436560707" />
    <polyline points="282,244.48711305964278 296,244.48711305964278 303,256.61146871262491 317,256.61146871262491 324,268.73582436560707" />
    <polyline points="317,256.61146871262491 324,244.48711305964278 338,244.48711305964278 345,256.61146871262491" />
    <polyline points="366,268.73582436560707 359,256.61146871262491 366,244.48711305964278" />
    <polyline points="380,268.73582436560707 387,256.61146871262491 401,256.61146871262491 408,244.48711305964278 422,244.48711305964278 429,256.61146871262491 443,256.61146871262491 450,268.73582436560707" />
    <polyline points="450,244.48711305964278 464,244.48711305964278 471,256.61146871262491" />
    <polyline points="485,256.61146871262491 492,268.73582436560707 485,280.86018001858923" />
    <polyline points="9,305.1088913245535 2,292.98453567157134 9,280.86018001858918" />
    <polyline points="30,292.98453567157134 23,280.86018001858918 30,268.735824365607 44,268.735824365607" />
    <polyline points="51,280.86018001858918 65,280.86018001858918 72,268.735824365607 86,268.735824365607" />
    <polyline points="86,292.98453567157134 93,280.86018001858918 107,280.86018001858918 114,268.735824365607" />
    <polyline points="128,268.735824365607 135,280.86018001858918 128,292.98453567157134" />
    <polyline points="135,280.86018001858918 149,280.86018001858918 156,268.735824365607" />
    <polyline points="170,268.735824365607 177,280.86018001858918 170,292.98453567157134" />
    <polyline points="198,292.98453567157134 191,280.86018001858918 198,268.735824365607" />
    <polyline points="212,268.735824365607 219,280.86018001858918 212,292.98453567157134" />
    <polyline points="282,292.98453567157134 275,280.86018001858918 282,268.735824365607" />
    <polyline points="296,268.735824365607 303,280.86018001858918 296,292.98453567157134" />
    <polyline points="303,280.86018001858918 317,280.86018001858918 324,268.735824365607" />
    <polyline points="338,268.735824365607 345,280.86018001858918 338,292.98453567157134" />
    <polyline points="359,280.86018001858918 366,268.735824365607 380,268.735824365607" />
    <polyline points="387,280.86018001858918 401,280.86018001858918 408,268.735824365607 422,268.735824365607 429,280.86018001858918 422,292.98453567157134" />
    <polyline points="429,280.86018001858918 443,280.86018001858918 450,292.98453567157134" />
    <polyline points="450,268.735824365607 464,268.735824365607 471,280.86018001858918 485,280.86018001858918 492,292.98453567157134 485,305.1088913245535" />
    <polyline points="9,329.35760263051782 2,317.23324697753566 9,305.1088913245535" />
    <polyline points="30,317.23324697753566 23,305.1088913245535 30,292.98453567157134 44,292.98453567157134 51,305.1088913245535 65,305.1088913245535 72,317.23324697753566" />
    <polyline points="72,292.98453567157134 86,292.98453567157134 93,305.1088913245535 107,305.1088913245535 114,317.23324697753566" />
    <polyline points="114,292.98453567157134 128,292.98453567157134 135,305.1088913245535 128,317.23324697753566" />
    <polyline points="149,305.1088913245535 156,292.98453567157134 170,292.98453567157134" />
    <polyline points="170,317.23324697753566 177,305.1088913245535 191,305.1088913245535 198,317.23324697753566" />
    <line x1="191" y1="305.1088913245535" x2="198" y2="292.98453567157134" />
    <polyline points="212,292.98453567157134 219,305.1088913245535 233,305.1088913245535 240,317.23324697753566" />
    <polyline points="254,317.23324697753566 261,305.1088913245535 275,305.1088913245535 282,292.98453567157134" />
    <polyline points="296,292.98453567157134 303,305.1088913245535 296,317.23324697753566" />
    <polyline points="303,305.1088913245535 317,305.1088913245535 324,317.23324697753566" />
    <polyline points="324,292.98453567157134 338,292.98453567157134 345,305.1088913245535 338,317.23324697753566" />
    <polyline points="345,305.1088913245535 359,305.1088913245535 366,292.98453567157134 380,292.98453567157134 387,305.1088913245535 401,305.1088913245535 408,317.23324697753566" />
    <line x1="401" y1="305.1088913245535" x2="408" y2="292.98453567157134" />
    <polyline points="429,305.1088913245535 443,305.1088913245535 450,317.23324697753566" />
    <polyline points="450,292.98453567157134 464,292.98453567157134 471,305.1088913245535 464,317.23324697753566" />
    <polyline points="485,305.1088913245535 492,317.23324697753566 485,329.35760263051782" />
    <polyline points="9,353.60631393648208 2,341.48195828349992 9,329.35760263051776 23,329.35760263051776 30,341.48195828349992" />
    <polyline points="44,317.2332469775356 51,329.35760263051776 44,341.48195828349992" />
    <polyline points="51,329.35760263051776 65,329.35760263051776 72,341.48195828349992" />
    <polyline points="72,317.2332469775356 86,317.2332469775356 93,329.35760263051776 86,341.48195828349992" />
    <polyline points="114,341.48195828349992 107,329.35760263051776 114,317.2332469775356" />
    <polyline points="128,317.2332469775356 135,329.35760263051776 128,341.48195828349992" />
    <polyline points="135,329.35760263051776 149,329.35760263051776 156,341.48195828349992" />
    <polyline points="149,329.35760263051776 156,317.2332469775356 170,317.2332469775356" />
    <line x1="170" y1="341.48195828349992" x2="177" y2="329.35760263051776" />
    <polyline points="191,329.35760263051776 198,317.2332469775356 212,317.2332469775356" />
    <polyline points="212,341.48195828349992 219,329.35760263051776 233,329.35760263051776 240,317.2332469775356" />
    <polyline points="254,317.2332469775356 261,329.35760263051776 254,341.48195828349992" />
    <polyline points="261,329.35760263051776 275,329.35760263051776 282,317.2332469775356 296,317.2332469775356" />
    <line x1="296" y1="341.48195828349992" x2="303" y2="329.35760263051776" />
    <polyline points="317,329.35760263051776 324,317.2332469775356 338,317.2332469775356" />
    <polyline points="338,341.48195828349992 345,329.35760263051776 359,329.35760263051776 366,341.48195828349992" />
    <polyline points="359,329.35760263051776 366,317.2332469775356 380,317.2332469775356" />
    <polyline points="387,329.35760263051776 401,329.35760263051776 408,341.48195828349992" />
    <polyline points="401,329.35760263051776 408,317.2332469775356 422,317.2332469775356" />
    <polyline points="422,341.48195828349992 429,329.35760263051776 443,329.35760263051776 450,341.48195828349992" />
    <polyline points="443,329.35760263051776 450,317.2332469775356 464,317.2332469775356" />
    <polyline points="471,329.35760263051776 485,329.35760263051776 492,341.48195828349992 485,353.60631393648208" />
    <polyline points="9,377.85502524244635 2,365.73066958946418 9,353.606313936482" />
    <line x1="23" y1="353.606313936482" x2="30" y2="365.73066958946418" />
    <line x1="30" y1="341.48195828349986" x2="44" y2="341.48195828349986" />
    <polyline points="51,353.606313936482 65,353.606313936482 72,341.48195828349986" />
    <polyline points="86,341.48195828349986 93,353.606313936482 86,365.73066958946418" />
    <polyline points="114,365.73066958946418 107,353.606313936482 114,341.48195828349986" />
    <line x1="128" y1="365.73066958946418" x2="135" y2="353.606313936482" />
    <polyline points="149,353.606313936482 156,341.48195828349986 170,341.48195828349986 177,353.606313936482 170,365.73066958946418" />
    <polyline points="191,353.606313936482 198,341.48195828349986 212,341.48195828349986 219,353.606313936482 233,353.606313936482 240,365.73066958946418" />
    <polyline points="240,341.48195828349986 254,341.48195828349986 261,353.606313936482 254,365.73066958946418" />
    <polyline points="282,365.73066958946418 275,353.606313936482 282,341.48195828349986 296,341.48195828349986 303,353.606313936482 296,365.73066958946418" />
    <polyline points="303,353.606313936482 317,353.606313936482 324,341.48195828349986 338,341.48195828349986" />
    <line x1="338" y1="365.73066958946418" x2="345" y2="353.606313936482" />
    <polyline points="366,365.73066958946418 359,353.606313936482 366,341.48195828349986 380,341.48195828349986" />
    <polyline points="387,353.606313936482 401,353.606313936482 408,365.73066958946418" />
    <polyline points="401,353.606313936482 408,341.48195828349986 422,341.48195828349986" />
    <polyline points="422,365.73066958946418 429,353.606313936482 443,353.606313936482 450,365.73066958946418" />
    <line x1="450" y1="341.48195828349986" x2="464" y2="341.48195828349986" />
    <line x1="464" y1="365.73066958946418" x2="471" y2="353.606313936482" />
    <polyline points="485,353.606313936482 492,365.73066958946418 485,377.85502524244635" />
    <polyline points="9,402.10373654841067 2,389.97938089542851 9,377.85502524244635 23,377.85502524244635" />
    <polyline points="30,365.73066958946418 44,365.73066958946418 51,377.85502524244635 44,389.97938089542851" />
    <polyline points="51,377.85502524244635 65,377.85502524244635 72,365.73066958946418 86,365.73066958946418 93,377.85502524244635 86,389.97938089542851" />
    <polyline points="114,389.97938089542851 107,377.85502524244635 114,365.73066958946418 128,365.73066958946418 135,377.85502524244635 128,389.97938089542851" />
    <polyline points="135,377.85502524244635 149,377.85502524244635 156,365.73066958946418" />
    <polyline points="170,365.73066958946418 177,377.85502524244635 170,389.97938089542851" />
    <polyline points="177,377.85502524244635 191,377.85502524244635 198,389.97938089542851" />
    <polyline points="191,377.85502524244635 198,365.73066958946418 212,365.73066958946418" />
    <polyline points="212,389.97938089542851 219,377.85502524244635 233,377.85502524244635 240,365.73066958946418" />
    <polyline points="254,365.73066958946418 261,377.85502524244635 254,389.97938089542851" />
    <polyline points="282,389.97938089542851 275,377.85502524244635 282,365.73066958946418" />
    <polyline points="296,389.97938089542851 303,377.85502524244635 317,377.85502524244635 324,389.97938089542851" />
    <polyline points="317,377.85502524244635 324,365.73066958946418 338,365.73066958946418 345,377.85502524244635 338,389.97938089542851" />
    <line x1="345" y1="377.85502524244635" x2="359" y2="377.85502524244635" />
    <polyline points="366,365.73066958946418 380,365.73066958946418 387,377.85502524244635" />
    <polyline points="408,389.97938089542851 401,377.85502524244635 408,365.73066958946418" />
    <line x1="422" y1="365.73066958946418" x2="429" y2="377.85502524244635" />
    <polyline points="450,389.97938089542851 443,377.85502524244635 450,365.73066958946418 464,365.73066958946418" />
    <polyline points="471,377.85502524244635 485,377.85502524244635 492,389.97938089542851 485,402.10373654841067" />
    <polyline points="9,426.35244785437493 2,414.22809220139277 9,402.10373654841061" />
    <polyline points="23,402.10373654841061 30,389.97938089542845 44,389.97938089542845" />
    <polyline points="51,402.10373654841061 65,402.10373654841061 72,414.22809220139277" />
    <polyline points="65,402.10373654841061 72,389.97938089542845 86,389.97938089542845" />
    <polyline points="93,402.10373654841061 107,402.10373654841061 114,389.97938089542845" />
    <polyline points="128,389.97938089542845 135,402.10373654841061 128,414.22809220139277" />
    <polyline points="135,402.10373654841061 149,402.10373654841061 156,414.22809220139277" />
    <line x1="156" y1="389.97938089542845" x2="170" y2="389.97938089542845" />
    <line x1="170" y1="414.22809220139277" x2="177" y2="402.10373654841061" />
    <polyline points="198,414.22809220139277 191,402.10373654841061 198,389.97938089542845" />
    <polyline points="212,389.97938089542845 219,402.10373654841061 212,414.22809220139277" />
    <polyline points="233,402.10373654841061 240,389.97938089542845 254,389.97938089542845 261,402.10373654841061 254,414.22809220139277" />
    <polyline points="282,414.22809220139277 275,402.10373654841061 282,389.97938089542845 296,389.97938089542845" />
    <line x1="296" y1="414.22809220139277" x2="303" y2="402.10373654841061" />
    <polyline points="324,414.22809220139277 317,402.10373654841061 324,389.97938089542845" />
    <line x1="338" y1="389.97938089542845" x2="345" y2="402.10373654841061" />
    <polyline points="366,414.22809220139277 359,402.10373654841061 366,389.97938089542845 380,389.97938089542845 387,402.10373654841061 401,402.10373654841061 408,414.22809220139277" />
    <polyline points="401,402.10373654841061 408,389.97938089542845 422,389.97938089542845" />
    <polyline points="422,414.22809220139277 429,402.10373654841061 443,402.10373654841061 450,414.22809220139277" />
    <polyline points="443,402.10373654841061 450,389.97938089542845 464,389.97938089542845" />
    <polyline points="464,414.22809220139277 471,402.10373654841061 485,402.10373654841061 492,414.22809220139277 485,426.35244785437493" />
    <polyline points="9,426.35244785437487 23,426.35244785437487 30,438.47680350735703" />
    <polyline points="23,426.35244785437487 30,414.22809220139271 44,414.22809220139271 51,426.35244785437487 65,426.35244785437487 72,438.47680350735703" />
    <polyline points="72,414.22809220139271 86,414.22809220139271 93,426.35244785437487 107,426.35244785437487 114,414.22809220139271 128,414.22809220139271" />
    <line x1="128" y1="438.47680350735703" x2="135" y2="426.35244785437487" />
    <polyline points="149,426.35244785437487 156,414.22809220139271 170,414.22809220139271 177,426.35244785437487" />
    <polyline points="198,438.47680350735703 191,426.35244785437487 198,414.22809220139271" />
    <polyline points="212,414.22809220139271 219,426.35244785437487 233,426.35244785437487 240,438.47680350735703" />
    <line x1="233" y1="426.35244785437487" x2="240" y2="414.22809220139271" />
    <polyline points="254,438.47680350735703 261,426.35244785437487 275,426.35244785437487 282,438.47680350735703" />
    <polyline points="275,426.35244785437487 282,414.22809220139271 296,414.22809220139271" />
    <polyline points="303,426.35244785437487 317,426.35244785437487 324,438.47680350735703" />
    <line x1="317" y1="426.35244785437487" x2="324" y2="414.22809220139271" />
    <polyline points="338,414.22809220139271 345,426.35244785437487 338,438.47680350735703" />
    <polyline points="345,426.35244785437487 359,426.35244785437487 366,438.47680350735703" />
    <line x1="359" y1="426.35244785437487" x2="366" y2="414.22809220139271" />
    <polyline points="380,414.22809220139271 387,426.35244785437487 380,438.47680350735703" />
    <line x1="401" y1="426.35244785437487" x2="408" y2="414.22809220139271" />
    <line x1="422" y1="438.47680350735703" x2="429" y2="426.35244785437487" />
    <polyline points="450,438.47680350735703 443,426.35244785437487 450,414.22809220139271" />
    <polyline points="464,438.47680350735703 471,426.35244785437487 485,426.35244785437487" />
    <polyline points="30,438.47680350735703 44,438.47680350735703 51,450.60115916033919 65,450.60115916033919 72,462.72551481332135" />
    <polyline points="72,438.47680350735703 86,438.47680350735703 93,450.60115916033919" />
    <polyline points="114,462.72551481332135 107,450.60115916033919 114,438.47680350735703 128,438.47680350735703" />
    <polyline points="128,462.72551481332135 135,450.60115916033919 149,450.60115916033919 156,462.72551481332135" />
    <polyline points="149,450.60115916033919 156,438.47680350735703 170,438.47680350735703 177,450.60115916033919 191,450.60115916033919 198,462.72551481332135" />
    <polyline points="191,450.60115916033919 198,438.47680350735703 212,438.47680350735703" />
    <polyline points="219,450.60115916033919 233,450.60115916033919 240,462.72551481332135" />
    <polyline points="233,450.60115916033919 240,438.47680350735703 254,438.47680350735703" />
    <line x1="254" y1="462.72551481332135" x2="261" y2="450.60115916033919" />
    <polyline points="275,450.60115916033919 282,438.47680350735703 296,438.47680350735703 303,450.60115916033919" />
    <line x1="317" y1="450.60115916033919" x2="324" y2="438.47680350735703" />
    <polyline points="338,438.47680350735703 345,450.60115916033919 338,462.72551481332135" />
    <line x1="359" y1="450.60115916033919" x2="366" y2="462.72551481332135" />
    <polyline points="380,438.47680350735703 387,450.60115916033919 380,462.72551481332135" />
    <polyline points="387,450.60115916033919 401,450.60115916033919 408,438.47680350735703 422,438.47680350735703" />
    <polyline points="422,462.72551481332135 429,450.60115916033919 443,450.60115916033919 450,438.47680350735703 464,438.47680350735703" />
    <polyline points="72,462.7255148133213 86,462.7255148133213 93,474.84987046630346 107,474.84987046630346 114,486.97422611928562" />
    <line x1="107" y1="474.84987046630346" x2="114" y2="462.7255148133213" />
    <line x1="128" y1="486.97422611928562" x2="135" y2="474.84987046630346" />
    <line x1="149" y1="474.84987046630346" x2="156" y2="486.97422611928562" />
    <polyline points="170,462.7255148133213 177,474.84987046630346 191,474.84987046630346 198,486.97422611928562" />
    <line x1="198" y1="462.7255148133213" x2="212" y2="462.7255148133213" />
    <polyline points="212,486.97422611928562 219,474.84987046630346 233,474.84987046630346 240,462.7255148133213" />
    <polyline points="254,462.7255148133213 261,474.84987046630346 254,486.97422611928562" />
    <polyline points="261,474.84987046630346 275,474.84987046630346 282,486.97422611928562" />
    <polyline points="275,474.84987046630346 282,462.7255148133213 296,462.7255148133213 303,474.84987046630346 317,474.84987046630346 324,486.97422611928562" />
    <polyline points="317,474.84987046630346 324,462.7255148133213 338,462.7255148133213" />
    <polyline points="345,474.84987046630346 359,474.84987046630346 366,486.97422611928562" />
    <polyline points="359,474.84987046630346 366,462.7255148133213 380,462.7255148133213" />
    <polyline points="380,486.97422611928562 387,474.84987046630346 401,474.84987046630346 408,462.7255148133213 422,462.7255148133213" />
    <polyline points="114,486.97422611928556 128,486.97422611928556 135,499.09858177226772 149,499.09858177226772 156,511.22293742524988" />
    <polyline points="149,499.09858177226772 156,486.97422611928556 170,486.97422611928556" />
    <polyline points="177,499.09858177226772 191,499.09858177226772 198,486.97422611928556 212,486.97422611928556 219,499.09858177226772 212,511.22293742524988" />
    <polyline points="240,511.22293742524988 233,499.09858177226772 240,486.97422611928556 254,486.97422611928556" />
    <polyline points="261,499.09858177226772 275,499.09858177226772 282,511.22293742524988" />
    <polyline points="282,486.97422611928556 296,486.97422611928556 303,499.09858177226772 296,511.22293742524988" />
    <line x1="317" y1="499.09858177226772" x2="324" y2="511.22293742524988" />
    <line x1="324" y1="486.97422611928556" x2="338" y2="486.97422611928556" />
    <polyline points="338,511.22293742524988 345,499.09858177226772 359,499.09858177226772 366,486.97422611928556 380,486.97422611928556" />
    <polyline points="156,511.22293742524988 170,511.22293742524988 177,523.347293078232 191,523.347293078232 198,535.47164873121415" />
    <line x1="191" y1="523.347293078232" x2="198" y2="511.22293742524988" />
    <polyline points="212,511.22293742524988 219,523.347293078232 233,523.347293078232 240,535.47164873121415" />
    <polyline points="240,511.22293742524988 254,511.22293742524988 261,523.347293078232" />
    <polyline points="282,535.47164873121415 275,523.347293078232 282,511.22293742524988" />
    <polyline points="296,535.47164873121415 303,523.347293078232 317,523.347293078232 324,511.22293742524988 338,511.22293742524988" />
    <polyline points="198,535.47164873121415 212,535.47164873121415 219,547.59600438419625 233,547.59600438419625 240,559.72036003717835" />
    <polyline points="240,535.47164873121415 254,535.47164873121415 261,547.59600438419625 254,559.72036003717835" />
    <polyline points="261,547.59600438419625 275,547.59600438419625 282,535.47164873121415 296,535.47164873121415" />
    <line x1="254" y1="559.72036003717835" x2="240" y2="559.72036003717835" />
  </g>
  <polyline fill="none" stroke="#ff0000" stroke-width="2" stroke-linecap="square" stroke-linejoin="round" points="247,1.9999999999999822 247,38.3730669589464 268,50.497422611928542 268,26.248711305964264 310,50.497422611928542 310,74.74613391789282 331,62.621778264910681 373,86.870489570874966 373,111.11920087683924 394,98.994845223857112 394,147.49226783578567 373,159.61662348876783 373,135.36791218280354 352,147.49226783578567 352,123.24355652982139 331,135.36791218280354 331,159.61662348876783 373,183.86533479473209 310,220.23840175367852 310,244.48711305964281 331,232.36275740666068 352,244.48711305964281 352,292.98453567157134 415,256.61146871262491 478,292.98453567157134 478,317.23324697753566 457,329.35760263051776 478,341.48195828349992 457,353.606313936482 436,341.48195828349992 415,353.606313936482 415,377.85502524244635 436,389.97938089542851 415,402.10373654841061 415,426.35244785437487 394,438.47680350735703 394,414.22809220139277 373,402.10373654841061 373,450.60115916033919 352,438.47680350735703 352,462.72551481332135 331,474.84987046630346 352,486.97422611928562 331,499.09858177226772 310,486.97422611928562 310,511.22293742524988 289,523.347293078232 289,499.09858177226772 268,486.97422611928562 247,499.09858177226772 268,511.22293742524988 268,535.47164873121415 226,511.22293742524988 226,486.97422611928562 247,474.84987046630346 247,450.60115916033919 268,438.47680350735703 268,462.72551481332135 289,450.60115916033919 310,462.72551481332135 331,450.60115916033919 331,402.10373654841061 352,414.22809220139277 352,389.97938089542851 373,377.85502524244635 394,389.97938089542851 394,365.73066958946418 373,353.606313936482 394,341.48195828349992 373,329.35760263051776 394,317.23324697753566 373,305.1088913245535 310,341.48195828349992 310,317.23324697753566 268,341.48195828349992 268,414.22809220139277 247,426.35244785437487 247,402.10373654841061 226,414.22809220139277 226,389.97938089542851 247,377.85502524244635 247,353.606313936482 226,341.48195828349992 247,329.35760263051776 247,317.23324697753566" />
</svg>
